<?xml version="1.0" encoding="utf-8"?>
<!-- Generator: Adobe Illustrator 24.0.1, SVG Export Plug-In . SVG Version: 6.00 Build 0)  -->
<svg version="1.1" xmlns="http://www.w3.org/2000/svg" xmlns:xlink="http://www.w3.org/1999/xlink" x="0px" y="0px"
	 viewBox="0 0 295.47 301.58" style="enable-background:new 0 0 295.47 301.58;" xml:space="preserve">
<style type="text/css">
	.st0{fill:#E6F5FD;stroke:#2B79BE;stroke-width:4;stroke-miterlimit:10;}
	.st1{fill:#BDDBED;stroke:#2B79BE;stroke-width:4;stroke-linecap:round;stroke-linejoin:round;stroke-miterlimit:10;}
	.st2{fill:#E6F5FD;stroke:#2B79BE;stroke-width:4;stroke-linecap:round;stroke-linejoin:round;stroke-miterlimit:10;}
	.st3{fill:#98CDE8;stroke:#2B79BE;stroke-width:4;stroke-linecap:round;stroke-linejoin:round;stroke-miterlimit:10;}
</style>
<g id="Слой_1">
</g>
<g id="Слой_2">
	<g>
		<circle class="st0" cx="219.35" cy="33.13" r="24.28"/>
		<path class="st1" d="M160.89,157.03l-38.66-21.09l52.92-85.26l33.13,24.52c0.31,0.23,4.45,3.25,4.23,3.58L160.89,157.03z"/>
		<path class="st2" d="M175.44,50.89l-4.08-3.14c-1.05-0.81-2.34-1.25-3.67-1.25h-44.15c-3.78,0-7.43,1.32-10.33,3.74L74.08,82.8
			c-5.21,4.25-5.72,12.02-1.12,16.91l0,0c3.24,3.45,8.59,3.8,12.26,0.82l34.58-27.13c1.83-1.44,4.09-2.22,6.41-2.24l36.1-0.26
			L175.44,50.89z"/>
		<path class="st2" d="M6.9,207.24v-3.06c0-5.45,4.42-9.87,9.87-9.87l72.17-0.75c5.45,0,13.17,5.17,13.17,10.62v3.06
			c0,5.45-4.42,9.87-9.87,9.87l-75.48,0C11.32,217.11,6.9,212.69,6.9,207.24z"/>
		<polygon class="st3" points="86.08,192.13 101.71,211.09 160.89,157.03 122.23,135.94 		"/>
		<path class="st2" d="M159.06,293.78L159.06,293.78c-6.55-3.4-9.09-11.47-5.69-18.02l31.6-60.77c3.4-6.55,11.47-9.09,18.02-5.69h0
			c6.55,3.4,9.09,11.47,5.69,18.02l-31.6,60.77C173.67,294.63,165.6,297.18,159.06,293.78z"/>
		<path class="st2" d="M211.59,79.19l-14.38,23.52l14.93,37.93c1.81,4.75,6.23,10.78,11.31,11.04l50.5-0.24
			c6.8,0.35,12.5-5.07,12.5-11.88v0c0-6.22-5.51-11.36-11.72-11.83l-36.17-1.7c-4.04-0.3-8.03,0.61-9.58-3.14L213.34,79.4
			C213.07,78.64,212.04,78.51,211.59,79.19z"/>
		<path class="st1" d="M122.23,135.94l-3.68,5.7c-6.02,9.31-4.15,21.64,4.35,28.76l58.65,49.09l22.78-9.57l-43.44-52.89
			L122.23,135.94z"/>
	</g>
</g>
</svg>
